<?xml version="1.0" encoding="UTF-8" standalone="no"?>
<!-- Created with Inkscape (http://www.inkscape.org/) -->
<svg xmlns:dc="http://purl.org/dc/elements/1.1/" xmlns:cc="http://creativecommons.org/ns#" xmlns:rdf="http://www.w3.org/1999/02/22-rdf-syntax-ns#" xmlns:svg="http://www.w3.org/2000/svg" xmlns="http://www.w3.org/2000/svg" xmlns:xlink="http://www.w3.org/1999/xlink" xmlns:sodipodi="http://sodipodi.sourceforge.net/DTD/sodipodi-0.dtd" xmlns:inkscape="http://www.inkscape.org/namespaces/inkscape" width="390" height="250" id="svg2924" sodipodi:version="0.32" inkscape:version="0.46" version="1.0" sodipodi:docname="chart.svg" inkscape:output_extension="org.inkscape.output.svg.inkscape">
  <defs id="defs2926">
    <linearGradient id="Definition_LinearGradient_76_64_78_66_b3ff4400_619e2400">
      <stop offset="0" style="stop-color: #b3ff44; stop-opacity: 1.00;" id="stop24"/>
      <stop offset="1" style="stop-color: #619e24; stop-opacity: 1.00;" id="stop26"/>
    </linearGradient>
    <linearGradient inkscape:collect="always" xlink:href="#Definition_LinearGradient_76_64_78_66_b3ff4400_619e2400" id="linearGradient2905" gradientUnits="userSpaceOnUse" x1="76.3702" y1="64.2934" x2="78.8554" y2="66.7786"/>
    <linearGradient id="Definition_LinearGradient_318_84_320_87_ff9d0000_ac550000">
      <stop offset="0" style="stop-color: #ff9d00; stop-opacity: 1.00;" id="stop156"/>
      <stop offset="1" style="stop-color: #ac5500; stop-opacity: 1.00;" id="stop158"/>
    </linearGradient>
    <linearGradient inkscape:collect="always" xlink:href="#Definition_LinearGradient_318_84_320_87_ff9d0000_ac550000" id="jdepend.bad.gradient" gradientUnits="userSpaceOnUse" x1="0" y1="15" x2="15" y2="30"/>
    <inkscape:perspective sodipodi:type="inkscape:persp3d" inkscape:vp_x="0 : 526.18109 : 1" inkscape:vp_y="0 : 1000 : 0" inkscape:vp_z="744.09448 : 526.18109 : 1" inkscape:persp3d-origin="372.04724 : 350.78739 : 1" id="perspective2932"/>
    <linearGradient inkscape:collect="always" xlink:href="#Definition_LinearGradient_76_64_78_66_b3ff4400_619e2400" id="jdepend.good.gradient" gradientUnits="userSpaceOnUse" x1="0" y1="15" x2="15" y2="30"/>
  </defs>
  <sodipodi:namedview id="base" pagecolor="#ffffff" bordercolor="#666666" borderopacity="1.0" gridtolerance="10000" guidetolerance="10" objecttolerance="10" inkscape:pageopacity="0.0" inkscape:pageshadow="2" inkscape:zoom="1.5" inkscape:cx="138.95468" inkscape:cy="125" inkscape:document-units="px" inkscape:current-layer="layer1" showgrid="false" inkscape:window-width="1280" inkscape:window-height="753" inkscape:window-x="0" inkscape:window-y="46"/>
  <metadata id="metadata2929">
    <rdf:RDF>
      <cc:Work rdf:about="">
        <dc:format>image/svg+xml</dc:format>
        <dc:type rdf:resource="http://purl.org/dc/dcmitype/StillImage"/>
      </cc:Work>
    </rdf:RDF>
  </metadata>
  <g inkscape:label="Layer 1" inkscape:groupmode="layer" id="layer1" xml:id="jdepend.layer">
    <rect style="opacity:1;fill:#4e9a06;fill-opacity:1;stroke:none;stroke-width:1;stroke-miterlimit:4;stroke-dasharray:none;stroke-opacity:1" id="rect4614" width="373.00024" height="1.0000018" x="53.196194" y="-9.293786" transform="matrix(0.8604851,0.5094756,-0.5094738,0.8604862,0,0)"/>
    <rect style="opacity:1;fill:#babdb6;fill-opacity:1;stroke:none;stroke-width:1;stroke-miterlimit:4;stroke-dasharray:none;stroke-opacity:1" id="rect4464" width="0.99999946" height="201" x="82" y="19.000061" rx="0" ry="0"/>
    <rect style="opacity:1;fill:#babdb6;fill-opacity:1;stroke:none;stroke-width:1;stroke-miterlimit:4;stroke-dasharray:none;stroke-opacity:1" id="rect4466" width="0.99999946" height="201" x="113.99999" y="19.000061" rx="0" ry="0"/>
    <rect style="opacity:1;fill:#babdb6;fill-opacity:1;stroke:none;stroke-width:1;stroke-miterlimit:4;stroke-dasharray:none;stroke-opacity:1" id="rect4468" width="0.99999946" height="201" x="146" y="19.000061" rx="0" ry="0"/>
    <rect style="opacity:1;fill:#babdb6;fill-opacity:1;stroke:none;stroke-width:1;stroke-miterlimit:4;stroke-dasharray:none;stroke-opacity:1" id="rect4470" width="0.99999946" height="201" x="177.99998" y="19.000061" rx="0" ry="0"/>
    <rect style="opacity:1;fill:#babdb6;fill-opacity:1;stroke:none;stroke-width:1;stroke-miterlimit:4;stroke-dasharray:none;stroke-opacity:1" id="rect4472" width="0.99999946" height="201" x="209.99998" y="19.000061" rx="0" ry="0"/>
    <rect style="opacity:1;fill:#babdb6;fill-opacity:1;stroke:none;stroke-width:1;stroke-miterlimit:4;stroke-dasharray:none;stroke-opacity:1" id="rect4474" width="0.99999946" height="201" x="241.99998" y="19.000061" rx="0" ry="0"/>
    <rect style="opacity:1;fill:#babdb6;fill-opacity:1;stroke:none;stroke-width:1;stroke-miterlimit:4;stroke-dasharray:none;stroke-opacity:1" id="rect4476" width="0.99999946" height="201" x="274" y="19.000061" rx="0" ry="0"/>
    <rect style="opacity:1;fill:#babdb6;fill-opacity:1;stroke:none;stroke-width:1;stroke-miterlimit:4;stroke-dasharray:none;stroke-opacity:1" id="rect4478" width="0.99999946" height="201" x="305.99997" y="19.000061" rx="0" ry="0"/>
    <rect style="opacity:1;fill:#babdb6;fill-opacity:1;stroke:none;stroke-width:1;stroke-miterlimit:4;stroke-dasharray:none;stroke-opacity:1" id="rect4480" width="0.99999946" height="201" x="337.99997" y="19.000061" rx="0" ry="0"/>
    <rect style="opacity:1;fill:#babdb6;fill-opacity:1;stroke:none;stroke-width:1;stroke-miterlimit:4;stroke-dasharray:none;stroke-opacity:1" id="rect4482" width="0.99999946" height="201" x="369.99997" y="19.000061" rx="0" ry="0"/>
    <rect style="opacity:1;fill:#babdb6;fill-opacity:1;stroke:none;stroke-width:1;stroke-miterlimit:4;stroke-dasharray:none;stroke-opacity:1" id="rect4484" width="331" height="1" x="40" y="19.000025"/>
    <rect style="opacity:1;fill:#babdb6;fill-opacity:1;stroke:none;stroke-width:1;stroke-miterlimit:4;stroke-dasharray:none;stroke-opacity:1" id="rect4486" width="331" height="1" x="40" y="57.000023"/>
    <rect style="opacity:1;fill:#babdb6;fill-opacity:1;stroke:none;stroke-width:1;stroke-miterlimit:4;stroke-dasharray:none;stroke-opacity:1" id="rect4488" width="331" height="1" x="40" y="38.000023"/>
    <rect style="opacity:1;fill:#babdb6;fill-opacity:1;stroke:none;stroke-width:1;stroke-miterlimit:4;stroke-dasharray:none;stroke-opacity:1" id="rect4490" width="331" height="1" x="40" y="76.000023"/>
    <rect style="opacity:1;fill:#babdb6;fill-opacity:1;stroke:none;stroke-width:1;stroke-miterlimit:4;stroke-dasharray:none;stroke-opacity:1" id="rect4492" width="331" height="1" x="40" y="95.000023"/>
    <rect style="opacity:1;fill:#babdb6;fill-opacity:1;stroke:none;stroke-width:1;stroke-miterlimit:4;stroke-dasharray:none;stroke-opacity:1" id="rect4494" width="331" height="1" x="40" y="133.00003"/>
    <rect style="opacity:1;fill:#babdb6;fill-opacity:1;stroke:none;stroke-width:1;stroke-miterlimit:4;stroke-dasharray:none;stroke-opacity:1" id="rect4496" width="331" height="1" x="40" y="114.00002"/>
    <rect style="opacity:1;fill:#babdb6;fill-opacity:1;stroke:none;stroke-width:1;stroke-miterlimit:4;stroke-dasharray:none;stroke-opacity:1" id="rect4498" width="331" height="1" x="40" y="152.00005"/>
    <rect style="opacity:1;fill:#babdb6;fill-opacity:1;stroke:none;stroke-width:1;stroke-miterlimit:4;stroke-dasharray:none;stroke-opacity:1" id="rect4500" width="331" height="1" x="40" y="171.00005"/>
    <rect style="opacity:1;fill:#babdb6;fill-opacity:1;stroke:none;stroke-width:1;stroke-miterlimit:4;stroke-dasharray:none;stroke-opacity:1" id="rect4502" width="331" height="1" x="40" y="190.00006"/>
    <rect style="opacity:1;fill:#555753;fill-opacity:1;stroke:none;stroke-width:1;stroke-miterlimit:4;stroke-dasharray:none;stroke-opacity:1" id="rect4504" width="331" height="1" x="40" y="209.00006"/>
    <rect style="opacity:1;fill:#555753;fill-opacity:1;stroke:none;stroke-width:1;stroke-miterlimit:4;stroke-dasharray:none;stroke-opacity:1" id="rect4462" width="0.99999946" height="201" x="49.999996" y="19.000061" rx="0" ry="0"/>
    <text xml:space="preserve" style="font-size:10px;font-style:normal;font-variant:normal;font-weight:bold;font-stretch:normal;text-align:center;text-anchor:middle;fill:#2e3436;fill-opacity:1;stroke:none;stroke-width:1px;stroke-linecap:butt;stroke-linejoin:miter;stroke-opacity:1;font-family:Arial;" x="83.181007" y="231.87305" id="text4506"><tspan sodipodi:role="line" id="tspan4508" x="83.181007" y="231.87305">0.1</tspan></text>
    <text xml:space="preserve" style="font-size:10px;font-style:normal;font-variant:normal;font-weight:bold;font-stretch:normal;text-align:center;text-anchor:middle;fill:#2e3436;fill-opacity:1;stroke:none;stroke-width:1px;stroke-linecap:butt;stroke-linejoin:miter;stroke-opacity:1;font-family:Arial;" x="114.70088" y="231.87305" id="text4510"><tspan sodipodi:role="line" id="tspan4512" x="114.70088" y="231.87305">0.2</tspan></text>
    <text xml:space="preserve" style="font-size:10px;font-style:normal;font-variant:normal;font-weight:bold;font-stretch:normal;text-align:center;text-anchor:middle;fill:#2e3436;fill-opacity:1;stroke:none;stroke-width:1px;stroke-linecap:butt;stroke-linejoin:miter;stroke-opacity:1;font-family:Arial;" x="242.95323" y="231.87305" id="text4514"><tspan sodipodi:role="line" id="tspan4516" x="242.95323" y="231.87305">0.6</tspan></text>
    <text xml:space="preserve" style="font-size:10px;font-style:normal;font-variant:normal;font-weight:bold;font-stretch:normal;text-align:center;text-anchor:middle;fill:#2e3436;fill-opacity:1;stroke:none;stroke-width:1px;stroke-linecap:butt;stroke-linejoin:miter;stroke-opacity:1;font-family:Arial;" x="210.84497" y="231.87305" id="text4518"><tspan sodipodi:role="line" id="tspan4520" x="210.84497" y="231.87305">0.5</tspan></text>
    <text xml:space="preserve" style="font-size:10px;font-style:normal;font-variant:normal;font-weight:bold;font-stretch:normal;text-align:center;text-anchor:middle;fill:#2e3436;fill-opacity:1;stroke:none;stroke-width:1px;stroke-linecap:butt;stroke-linejoin:miter;stroke-opacity:1;font-family:Arial;" x="178.72696" y="231.87305" id="text4522"><tspan sodipodi:role="line" id="tspan4524" x="178.72696" y="231.87305">0.4</tspan></text>
    <text xml:space="preserve" style="font-size:10px;font-style:normal;font-variant:normal;font-weight:bold;font-stretch:normal;text-align:center;text-anchor:middle;fill:#2e3436;fill-opacity:1;stroke:none;stroke-width:1px;stroke-linecap:butt;stroke-linejoin:miter;stroke-opacity:1;font-family:Arial;" x="146.74567" y="231.87305" id="text4526"><tspan sodipodi:role="line" id="tspan4528" x="146.74567" y="231.87305">0.3</tspan></text>
    <text xml:space="preserve" style="font-size:10px;font-style:normal;font-variant:normal;font-weight:bold;font-stretch:normal;text-align:center;text-anchor:middle;fill:#2e3436;fill-opacity:1;stroke:none;stroke-width:1px;stroke-linecap:butt;stroke-linejoin:miter;stroke-opacity:1;font-family:Arial;" x="307.16241" y="231.87305" id="text4530"><tspan sodipodi:role="line" id="tspan4532" x="307.16241" y="231.87305">0.8</tspan></text>
    <text xml:space="preserve" style="font-size:10px;font-style:normal;font-variant:normal;font-weight:bold;font-stretch:normal;text-align:center;text-anchor:middle;fill:#2e3436;fill-opacity:1;stroke:none;stroke-width:1px;stroke-linecap:butt;stroke-linejoin:miter;stroke-opacity:1;font-family:Arial;" x="275.07858" y="231.87305" id="text4534"><tspan sodipodi:role="line" id="tspan4536" x="275.07858" y="231.87305">0.7</tspan></text>
    <text xml:space="preserve" style="font-size:10px;font-style:normal;font-variant:normal;font-weight:bold;font-stretch:normal;text-align:center;text-anchor:middle;fill:#2e3436;fill-opacity:1;stroke:none;stroke-width:1px;stroke-linecap:butt;stroke-linejoin:miter;stroke-opacity:1;font-family:Arial;" x="371.16162" y="231.87305" id="text4538"><tspan sodipodi:role="line" id="tspan4540" x="371.16162" y="231.87305">1.0</tspan></text>
    <text xml:space="preserve" style="font-size:10px;font-style:normal;font-variant:normal;font-weight:bold;font-stretch:normal;text-align:center;text-anchor:middle;fill:#2e3436;fill-opacity:1;stroke:none;stroke-width:1px;stroke-linecap:butt;stroke-linejoin:miter;stroke-opacity:1;font-family:Arial;" x="339.25113" y="231.87305" id="text4542"><tspan sodipodi:role="line" id="tspan4544" x="339.25113" y="231.87305">0.9</tspan></text>
    <text xml:space="preserve" style="font-size:10px;font-style:normal;font-variant:normal;font-weight:bold;font-stretch:normal;text-align:center;text-anchor:middle;fill:#2e3436;fill-opacity:1;stroke:none;stroke-width:1px;stroke-linecap:butt;stroke-linejoin:miter;stroke-opacity:1;font-family:Arial;" x="50.533203" y="231.87305" id="text4546"><tspan sodipodi:role="line" id="tspan4548" x="50.533203" y="231.87305">0.0</tspan></text>
    <text xml:space="preserve" style="font-size:10px;font-style:normal;font-variant:normal;font-weight:bold;font-stretch:normal;text-align:center;text-anchor:middle;fill:#2e3436;fill-opacity:1;stroke:none;stroke-width:1px;stroke-linecap:butt;stroke-linejoin:miter;stroke-opacity:1;font-family:Arial;" x="28.533201" y="193.87793" id="text4550"><tspan sodipodi:role="line" id="tspan4552" x="28.533201" y="193.87793">0.1</tspan></text>
    <text xml:space="preserve" style="font-size:10px;font-style:normal;font-variant:normal;font-weight:bold;font-stretch:normal;text-align:center;text-anchor:middle;fill:#2e3436;fill-opacity:1;stroke:none;stroke-width:1px;stroke-linecap:butt;stroke-linejoin:miter;stroke-opacity:1;font-family:Arial;" x="28.533201" y="174.87793" id="text4554"><tspan sodipodi:role="line" id="tspan4556" x="28.533201" y="174.87793">0.2</tspan></text>
    <text xml:space="preserve" style="font-size:10px;font-style:normal;font-variant:normal;font-weight:bold;font-stretch:normal;text-align:center;text-anchor:middle;fill:#2e3436;fill-opacity:1;stroke:none;stroke-width:1px;stroke-linecap:butt;stroke-linejoin:miter;stroke-opacity:1;font-family:Arial;" x="28.533201" y="98.87793" id="text4558"><tspan sodipodi:role="line" id="tspan4560" x="28.533201" y="98.87793">0.6</tspan></text>
    <text xml:space="preserve" style="font-size:10px;font-style:normal;font-variant:normal;font-weight:bold;font-stretch:normal;text-align:center;text-anchor:middle;fill:#2e3436;fill-opacity:1;stroke:none;stroke-width:1px;stroke-linecap:butt;stroke-linejoin:miter;stroke-opacity:1;font-family:Arial;" x="28.533201" y="117.87792" id="text4562"><tspan sodipodi:role="line" id="tspan4564" x="28.533201" y="117.87792">0.5</tspan></text>
    <text xml:space="preserve" style="font-size:10px;font-style:normal;font-variant:normal;font-weight:bold;font-stretch:normal;text-align:center;text-anchor:middle;fill:#2e3436;fill-opacity:1;stroke:none;stroke-width:1px;stroke-linecap:butt;stroke-linejoin:miter;stroke-opacity:1;font-family:Arial;" x="28.533201" y="136.87793" id="text4566"><tspan sodipodi:role="line" id="tspan4568" x="28.533201" y="136.87793">0.4</tspan></text>
    <text xml:space="preserve" style="font-size:10px;font-style:normal;font-variant:normal;font-weight:bold;font-stretch:normal;text-align:center;text-anchor:middle;fill:#2e3436;fill-opacity:1;stroke:none;stroke-width:1px;stroke-linecap:butt;stroke-linejoin:miter;stroke-opacity:1;font-family:Arial;" x="28.533201" y="155.87793" id="text4570"><tspan sodipodi:role="line" id="tspan4572" x="28.533201" y="155.87793">0.3</tspan></text>
    <text xml:space="preserve" style="font-size:10px;font-style:normal;font-variant:normal;font-weight:bold;font-stretch:normal;text-align:center;text-anchor:middle;fill:#2e3436;fill-opacity:1;stroke:none;stroke-width:1px;stroke-linecap:butt;stroke-linejoin:miter;stroke-opacity:1;font-family:Arial;" x="28.533201" y="60.875481" id="text4574"><tspan sodipodi:role="line" id="tspan4576" x="28.533201" y="60.875481">0.8</tspan></text>
    <text xml:space="preserve" style="font-size:10px;font-style:normal;font-variant:normal;font-weight:bold;font-stretch:normal;text-align:center;text-anchor:middle;fill:#2e3436;fill-opacity:1;stroke:none;stroke-width:1px;stroke-linecap:butt;stroke-linejoin:miter;stroke-opacity:1;font-family:Arial;" x="28.533201" y="79.87793" id="text4578"><tspan sodipodi:role="line" id="tspan4580" x="28.533201" y="79.87793">0.7</tspan></text>
    <text xml:space="preserve" style="font-size:10px;font-style:normal;font-variant:normal;font-weight:bold;font-stretch:normal;text-align:center;text-anchor:middle;fill:#2e3436;fill-opacity:1;stroke:none;stroke-width:1px;stroke-linecap:butt;stroke-linejoin:miter;stroke-opacity:1;font-family:Arial;" x="28.162107" y="22.87793" id="text4582"><tspan sodipodi:role="line" id="tspan4584" x="28.162107" y="22.87793">1.0</tspan></text>
    <text xml:space="preserve" style="font-size:10px;font-style:normal;font-variant:normal;font-weight:bold;font-stretch:normal;text-align:center;text-anchor:middle;fill:#2e3436;fill-opacity:1;stroke:none;stroke-width:1px;stroke-linecap:butt;stroke-linejoin:miter;stroke-opacity:1;font-family:Arial;" x="28.533201" y="41.875492" id="text4586"><tspan sodipodi:role="line" id="tspan4588" x="28.533201" y="41.875492">0.9</tspan></text>
    <text xml:space="preserve" style="font-size:10px;font-style:normal;font-variant:normal;font-weight:bold;font-stretch:normal;text-align:center;text-anchor:middle;fill:#2e3436;fill-opacity:1;stroke:none;stroke-width:1px;stroke-linecap:butt;stroke-linejoin:miter;stroke-opacity:1;font-family:Arial;" x="28.939205" y="212.87793" id="text4590"><tspan sodipodi:role="line" id="tspan4592" x="28.939205" y="212.87793">0.0</tspan></text>
    <text xml:space="preserve" style="font-size:11px;font-style:normal;font-variant:normal;font-weight:normal;font-stretch:normal;text-align:center;writing-mode:lr-tb;text-anchor:middle;fill:#2e3436;fill-opacity:1;stroke:none;stroke-width:1px;stroke-linecap:butt;stroke-linejoin:miter;stroke-opacity:1;font-family:Arial;" x="195.05258" y="247.85966" id="text4604" transform="scale(1.0000012,0.9999988)"><tspan sodipodi:role="line" id="tspan4606" x="195.05258" y="247.85966">Abstraction</tspan></text>
    <text xml:space="preserve" style="font-size:11px;font-style:normal;font-variant:normal;font-weight:normal;font-stretch:normal;text-align:center;writing-mode:lr-tb;text-anchor:middle;fill:#2e3436;fill-opacity:1;stroke:none;stroke-width:1px;stroke-linecap:butt;stroke-linejoin:miter;stroke-opacity:1;font-family:Arial;" x="-126.09961" y="10.589844" id="text4608" transform="matrix(0,-1,1,0,0,0)"><tspan sodipodi:role="line" id="tspan4610" x="-126.09961" y="10.589844">Instability</tspan></text>
    <text xml:space="preserve" style="font-size:9px;font-style:normal;font-weight:normal;text-align:center;text-anchor:middle;fill:#2e3436;fill-opacity:1;stroke:none;stroke-width:1px;stroke-linecap:butt;stroke-linejoin:miter;stroke-opacity:1;font-family:URW Chancery L" x="313.30417" y="246.10596" id="text2692"><tspan sodipodi:role="line" id="tspan2694" x="313.30417" y="246.10596" style="font-size:9px;font-style:italic;font-variant:normal;font-weight:normal;font-stretch:normal;fill:#2e3436;font-family:Arial; Italic">Generated  by PHP_Depend</tspan></text>
    
    
  <ellipse sodipodi:ry="15" sodipodi:rx="15" sodipodi:cy="15" sodipodi:cx="15" id="pdepend_4f6073ea3fee8" style="fill:url(#jdepend.bad.gradient);stroke:none" ry="15" rx="15" cy="15" cx="15" transform="matrix(0.32943469785575, 0, 0, 0.32943469785575, 45.058479532164, 205.05847953216)" title="BuddyPress\BP-Default"/><ellipse sodipodi:ry="15" sodipodi:rx="15" sodipodi:cy="15" sodipodi:cx="15" id="pdepend_4f6073ea40045" style="fill:url(#jdepend.bad.gradient);stroke:none" ry="15" rx="15" cy="15" cx="15" transform="matrix(0.32943469785575, 0, 0, 0.32943469785575, 45.058479532164, 205.05847953216)" title="BuddyPress\Settings"/><ellipse sodipodi:ry="15" sodipodi:rx="15" sodipodi:cy="15" sodipodi:cx="15" id="pdepend_4f6073ea4019b" style="fill:url(#jdepend.bad.gradient);stroke:none" ry="15" rx="15" cy="15" cx="15" transform="matrix(0.32943469785575, 0, 0, 0.32943469785575, 45.058479532164, 205.05847953216)" title="BuddyPress\Member"/><ellipse sodipodi:ry="15" sodipodi:rx="15" sodipodi:cy="15" sodipodi:cx="15" id="pdepend_4f6073ea402ed" style="fill:url(#jdepend.bad.gradient);stroke:none" ry="15" rx="15" cy="15" cx="15" transform="matrix(0.32943469785575, 0, 0, 0.32943469785575, 45.058479532164, 205.05847953216)" title="Hello_Dolly"/><ellipse sodipodi:ry="15" sodipodi:rx="15" sodipodi:cy="15" sodipodi:cx="15" id="pdepend_4f6073ea40427" style="fill:url(#jdepend.bad.gradient);stroke:none" ry="15" rx="15" cy="15" cx="15" transform="matrix(0.32943469785575, 0, 0, 0.32943469785575, 45.058479532164, 205.05847953216)" title="WordPress\Twenty_Ten"/><ellipse sodipodi:ry="15" sodipodi:rx="15" sodipodi:cy="15" sodipodi:cx="15" id="pdepend_4f6073ea405c9" style="fill:url(#jdepend.bad.gradient);stroke:none" ry="15" rx="15" cy="15" cx="15" transform="matrix(0.32943469785575, 0, 0, 0.32943469785575, 45.058479532164, 205.05847953216)" title="WordPress\Bookmark"/><ellipse sodipodi:ry="15" sodipodi:rx="15" sodipodi:cy="15" sodipodi:cx="15" id="pdepend_4f6073ea40b08" style="fill:url(#jdepend.bad.gradient);stroke:none" ry="15" rx="15" cy="15" cx="15" transform="matrix(0.32943469785575, 0, 0, 0.32943469785575, 45.058479532164, 205.05847953216)" title="WordPress\Template"/><ellipse sodipodi:ry="15" sodipodi:rx="15" sodipodi:cy="15" sodipodi:cx="15" id="pdepend_4f6073ea40c98" style="fill:url(#jdepend.bad.gradient);stroke:none" ry="15" rx="15" cy="15" cx="15" transform="matrix(0.32943469785575, 0, 0, 0.32943469785575, 45.058479532164, 205.05847953216)" title="Buddypress"/><ellipse sodipodi:ry="15" sodipodi:rx="15" sodipodi:cy="15" sodipodi:cx="15" id="pdepend_4f6073ea40e04" style="fill:url(#jdepend.bad.gradient);stroke:none" ry="15" rx="15" cy="15" cx="15" transform="matrix(0.32943469785575, 0, 0, 0.32943469785575, 45.058479532164, 205.05847953216)" title="BuddyPress_Forums"/><ellipse sodipodi:ry="15" sodipodi:rx="15" sodipodi:cy="15" sodipodi:cx="15" id="pdepend_4f6073ea40f53" style="fill:url(#jdepend.bad.gradient);stroke:none" ry="15" rx="15" cy="15" cx="15" transform="matrix(0.32943469785575, 0, 0, 0.32943469785575, 45.058479532164, 205.05847953216)" title="bbPress\Security"/><ellipse sodipodi:ry="15" sodipodi:rx="15" sodipodi:cy="15" sodipodi:cx="15" id="pdepend_4f6073ea4108d" style="fill:url(#jdepend.bad.gradient);stroke:none" ry="15" rx="15" cy="15" cx="15" transform="matrix(0.32943469785575, 0, 0, 0.32943469785575, 45.058479532164, 205.05847953216)" title="bbPress\User"/><ellipse sodipodi:ry="15" sodipodi:rx="15" sodipodi:cy="15" sodipodi:cx="15" id="pdepend_4f6073ea411d5" style="fill:url(#jdepend.bad.gradient);stroke:none" ry="15" rx="15" cy="15" cx="15" transform="matrix(0.32943469785575, 0, 0, 0.32943469785575, 45.058479532164, 205.05847953216)" title="WordPress\Taxonomy"/><ellipse sodipodi:ry="15" sodipodi:rx="15" sodipodi:cy="15" sodipodi:cx="15" id="pdepend_4f6073ea41319" style="fill:url(#jdepend.bad.gradient);stroke:none" ry="15" rx="15" cy="15" cx="15" transform="matrix(0.32943469785575, 0, 0, 0.32943469785575, 45.058479532164, 205.05847953216)" title="bbPress\Deprecated"/><ellipse sodipodi:ry="15" sodipodi:rx="15" sodipodi:cy="15" sodipodi:cx="15" id="pdepend_4f6073ea4149b" style="fill:url(#jdepend.bad.gradient);stroke:none" ry="15" rx="15" cy="15" cx="15" transform="matrix(0.32943469785575, 0, 0, 0.32943469785575, 45.058479532164, 205.05847953216)" title="bbPress\Transient"/><ellipse sodipodi:ry="15" sodipodi:rx="15" sodipodi:cy="15" sodipodi:cx="15" id="pdepend_4f6073ea415d5" style="fill:url(#jdepend.bad.gradient);stroke:none" ry="15" rx="15" cy="15" cx="15" transform="matrix(0.32943469785575, 0, 0, 0.32943469785575, 45.058479532164, 205.05847953216)" title="Hello_Louie"/><ellipse sodipodi:ry="15" sodipodi:rx="15" sodipodi:cy="15" sodipodi:cx="15" id="pdepend_4f6073ea41728" style="fill:url(#jdepend.bad.gradient);stroke:none" ry="15" rx="15" cy="15" cx="15" transform="matrix(0.32943469785575, 0, 0, 0.32943469785575, 45.058479532164, 205.05847953216)" title="bbPress\Meta"/><ellipse sodipodi:ry="15" sodipodi:rx="15" sodipodi:cy="15" sodipodi:cx="15" id="pdepend_4f6073ea41879" style="fill:url(#jdepend.bad.gradient);stroke:none" ry="15" rx="15" cy="15" cx="15" transform="matrix(0.32943469785575, 0, 0, 0.32943469785575, 45.058479532164, 205.05847953216)" title="WordPress\Comment"/><ellipse sodipodi:ry="15" sodipodi:rx="15" sodipodi:cy="15" sodipodi:cx="15" id="pdepend_4f6073ea419b0" style="fill:url(#jdepend.bad.gradient);stroke:none" ry="15" rx="15" cy="15" cx="15" transform="matrix(0.32943469785575, 0, 0, 0.32943469785575, 45.058479532164, 205.05847953216)" title="WordPress\Post"/><ellipse sodipodi:ry="15" sodipodi:rx="15" sodipodi:cy="15" sodipodi:cx="15" id="pdepend_4f6073ea41af7" style="fill:url(#jdepend.bad.gradient);stroke:none" ry="15" rx="15" cy="15" cx="15" transform="matrix(0.32943469785575, 0, 0, 0.32943469785575, 45.058479532164, 205.05847953216)" title="WordPress\Nav_Menus"/><ellipse sodipodi:ry="15" sodipodi:rx="15" sodipodi:cy="15" sodipodi:cx="15" id="pdepend_4f6073ea41c46" style="fill:url(#jdepend.bad.gradient);stroke:none" ry="15" rx="15" cy="15" cx="15" transform="matrix(0.32943469785575, 0, 0, 0.32943469785575, 45.058479532164, 205.05847953216)" title="WordPress\Meta"/><ellipse sodipodi:ry="15" sodipodi:rx="15" sodipodi:cy="15" sodipodi:cx="15" id="pdepend_4f6073ea41dd4" style="fill:url(#jdepend.bad.gradient);stroke:none" ry="15" rx="15" cy="15" cx="15" transform="matrix(0.32943469785575, 0, 0, 0.32943469785575, 45.058479532164, 205.05847953216)" title="WordPress\i18n"/><ellipse sodipodi:ry="15" sodipodi:rx="15" sodipodi:cy="15" sodipodi:cx="15" id="pdepend_4f6073ea41f2a" style="fill:url(#jdepend.bad.gradient);stroke:none" ry="15" rx="15" cy="15" cx="15" transform="matrix(0.32943469785575, 0, 0, 0.32943469785575, 45.058479532164, 205.05847953216)" title="WordPress\Query"/><ellipse sodipodi:ry="15" sodipodi:rx="15" sodipodi:cy="15" sodipodi:cx="15" id="pdepend_4f6073ea42077" style="fill:url(#jdepend.bad.gradient);stroke:none" ry="15" rx="15" cy="15" cx="15" transform="matrix(0.32943469785575, 0, 0, 0.32943469785575, 45.058479532164, 205.05847953216)" title="WordPress\Rewrite"/><ellipse sodipodi:ry="15" sodipodi:rx="15" sodipodi:cy="15" sodipodi:cx="15" id="pdepend_4f6073ea421c8" style="fill:url(#jdepend.bad.gradient);stroke:none" ry="15" rx="15" cy="15" cx="15" transform="matrix(0.32943469785575, 0, 0, 0.32943469785575, 45.058479532164, 205.05847953216)" title="WordPress\Shortcodes"/><ellipse sodipodi:ry="15" sodipodi:rx="15" sodipodi:cy="15" sodipodi:cx="15" id="pdepend_4f6073ea42302" style="fill:url(#jdepend.bad.gradient);stroke:none" ry="15" rx="15" cy="15" cx="15" transform="matrix(0.32943469785575, 0, 0, 0.32943469785575, 45.058479532164, 205.05847953216)" title="External\MagpieRSS"/><ellipse sodipodi:ry="15" sodipodi:rx="15" sodipodi:cy="15" sodipodi:cx="15" id="pdepend_4f6073ea42459" style="fill:url(#jdepend.bad.gradient);stroke:none" ry="15" rx="15" cy="15" cx="15" transform="matrix(0.32943469785575, 0, 0, 0.32943469785575, 45.058479532164, 205.05847953216)" title="External\KSES"/><ellipse sodipodi:ry="15" sodipodi:rx="15" sodipodi:cy="15" sodipodi:cx="15" id="pdepend_4f6073ea42608" style="fill:url(#jdepend.bad.gradient);stroke:none" ry="15" rx="15" cy="15" cx="15" transform="matrix(0.32943469785575, 0, 0, 0.32943469785575, 45.058479532164, 205.05847953216)" title="WordPress\MCE"/><ellipse sodipodi:ry="15" sodipodi:rx="15" sodipodi:cy="15" sodipodi:cx="15" id="pdepend_4f6073ea42788" style="fill:url(#jdepend.bad.gradient);stroke:none" ry="15" rx="15" cy="15" cx="15" transform="matrix(0.32943469785575, 0, 0, 0.32943469785575, 45.058479532164, 205.05847953216)" title="WordPress\Option"/><ellipse sodipodi:ry="15" sodipodi:rx="15" sodipodi:cy="15" sodipodi:cx="15" id="pdepend_4f6073ea428e7" style="fill:url(#jdepend.bad.gradient);stroke:none" ry="15" rx="15" cy="15" cx="15" transform="matrix(0.32943469785575, 0, 0, 0.32943469785575, 45.058479532164, 205.05847953216)" title="WordPress\Feed"/><ellipse sodipodi:ry="15" sodipodi:rx="15" sodipodi:cy="15" sodipodi:cx="15" id="pdepend_4f6073ea42a39" style="fill:url(#jdepend.bad.gradient);stroke:none" ry="15" rx="15" cy="15" cx="15" transform="matrix(0.32943469785575, 0, 0, 0.32943469785575, 45.058479532164, 205.05847953216)" title="WordPress\Transient"/><ellipse sodipodi:ry="15" sodipodi:rx="15" sodipodi:cy="15" sodipodi:cx="15" id="pdepend_4f6073ea42b70" style="fill:url(#jdepend.bad.gradient);stroke:none" ry="15" rx="15" cy="15" cx="15" transform="matrix(0.32943469785575, 0, 0, 0.32943469785575, 45.058479532164, 205.05847953216)" title="WordPress\XMLRPC"/><ellipse sodipodi:ry="15" sodipodi:rx="15" sodipodi:cy="15" sodipodi:cx="15" id="pdepend_4f6073ea42cbc" style="fill:url(#jdepend.bad.gradient);stroke:none" ry="15" rx="15" cy="15" cx="15" transform="matrix(0.32943469785575, 0, 0, 0.32943469785575, 45.058479532164, 205.05847953216)" title="WordPress\Security"/><ellipse sodipodi:ry="15" sodipodi:rx="15" sodipodi:cy="15" sodipodi:cx="15" id="pdepend_4f6073ea42e00" style="fill:url(#jdepend.bad.gradient);stroke:none" ry="15" rx="15" cy="15" cx="15" transform="matrix(0.32943469785575, 0, 0, 0.32943469785575, 45.058479532164, 205.05847953216)" title="WordPress\Debug"/><ellipse sodipodi:ry="15" sodipodi:rx="15" sodipodi:cy="15" sodipodi:cx="15" id="pdepend_4f6073ea42fc0" style="fill:url(#jdepend.bad.gradient);stroke:none" ry="15" rx="15" cy="15" cx="15" transform="matrix(0.32943469785575, 0, 0, 0.32943469785575, 45.058479532164, 205.05847953216)" title="PHP"/><ellipse sodipodi:ry="15" sodipodi:rx="15" sodipodi:cy="15" sodipodi:cx="15" id="pdepend_4f6073ea433c6" style="fill:url(#jdepend.bad.gradient);stroke:none" ry="15" rx="15" cy="15" cx="15" transform="matrix(0.32943469785575, 0, 0, 0.32943469785575, 45.058479532164, 205.05847953216)" title="bbPress\i18n"/><ellipse sodipodi:ry="15" sodipodi:rx="15" sodipodi:cy="15" sodipodi:cx="15" id="pdepend_4f6073ea43510" style="fill:url(#jdepend.bad.gradient);stroke:none" ry="15" rx="15" cy="15" cx="15" transform="matrix(0.32943469785575, 0, 0, 0.32943469785575, 45.058479532164, 205.05847953216)" title="BuddyPress\ActivityScreens"/><ellipse sodipodi:ry="15" sodipodi:rx="15" sodipodi:cy="15" sodipodi:cx="15" id="pdepend_4f6073ea437ec" style="fill:url(#jdepend.bad.gradient);stroke:none" ry="15" rx="15" cy="15" cx="15" transform="matrix(0.32943469785575, 0, 0, 0.32943469785575, 45.058479532164, 205.05847953216)" title="BuddyPress\ActivityTemplate"/><ellipse sodipodi:ry="15" sodipodi:rx="15" sodipodi:cy="15" sodipodi:cx="15" id="pdepend_4f6073ea43945" style="fill:url(#jdepend.bad.gradient);stroke:none" ry="15" rx="15" cy="15" cx="15" transform="matrix(0.32943469785575, 0, 0, 0.32943469785575, 45.058479532164, 205.05847953216)" title="WordPress\Multisite"/><ellipse sodipodi:ry="15" sodipodi:rx="15" sodipodi:cy="15" sodipodi:cx="15" id="pdepend_4f6073ea43c0d" style="fill:url(#jdepend.bad.gradient);stroke:none" ry="15" rx="15" cy="15" cx="15" transform="matrix(0.32943469785575, 0, 0, 0.32943469785575, 45.058479532164, 205.05847953216)" title="WordPress\Deprecated"/><ellipse sodipodi:ry="15" sodipodi:rx="15" sodipodi:cy="15" sodipodi:cx="15" id="pdepend_4f6073ea43d6b" style="fill:url(#jdepend.bad.gradient);stroke:none" ry="15" rx="15" cy="15" cx="15" transform="matrix(0.32943469785575, 0, 0, 0.32943469785575, 45.058479532164, 205.05847953216)" title="BuddyPress\ActivityNotifications"/><ellipse sodipodi:ry="15" sodipodi:rx="15" sodipodi:cy="15" sodipodi:cx="15" id="pdepend_4f6073ea43ec0" style="fill:url(#jdepend.bad.gradient);stroke:none" ry="15" rx="15" cy="15" cx="15" transform="matrix(0.32943469785575, 0, 0, 0.32943469785575, 45.058479532164, 205.05847953216)" title="Akismet"/><ellipse sodipodi:ry="15" sodipodi:rx="15" sodipodi:cy="15" sodipodi:cx="15" id="pdepend_4f6073ea43ff4" style="fill:url(#jdepend.bad.gradient);stroke:none" ry="15" rx="15" cy="15" cx="15" transform="matrix(0.32943469785575, 0, 0, 0.32943469785575, 45.058479532164, 205.05847953216)" title="BuddyPress\ActivityFilters"/><ellipse sodipodi:ry="15" sodipodi:rx="15" sodipodi:cy="15" sodipodi:cx="15" id="pdepend_4f6073ea4412b" style="fill:url(#jdepend.bad.gradient);stroke:none" ry="15" rx="15" cy="15" cx="15" transform="matrix(0.32943469785575, 0, 0, 0.32943469785575, 45.058479532164, 205.05847953216)" title="BuddyPress\ActivityFunctions"/><ellipse sodipodi:ry="15" sodipodi:rx="15" sodipodi:cy="15" sodipodi:cx="15" id="pdepend_4f6073ea44281" style="fill:url(#jdepend.bad.gradient);stroke:none" ry="15" rx="15" cy="15" cx="15" transform="matrix(0.32943469785575, 0, 0, 0.32943469785575, 45.058479532164, 205.05847953216)" title="BuddyPress\ActivityActions"/><ellipse sodipodi:ry="15" sodipodi:rx="15" sodipodi:cy="15" sodipodi:cx="15" id="pdepend_4f6073ea443eb" style="fill:url(#jdepend.bad.gradient);stroke:none" ry="15" rx="15" cy="15" cx="15" transform="matrix(0.32943469785575, 0, 0, 0.32943469785575, 45.058479532164, 205.05847953216)" title="WordPress\Permalink_Settings_Screen"/><ellipse sodipodi:ry="15" sodipodi:rx="15" sodipodi:cy="15" sodipodi:cx="15" id="pdepend_4f6073ea44535" style="fill:url(#jdepend.bad.gradient);stroke:none" ry="15" rx="15" cy="15" cx="15" transform="matrix(0.32943469785575, 0, 0, 0.32943469785575, 45.058479532164, 205.05847953216)" title="BuddyPress\Core"/><ellipse sodipodi:ry="15" sodipodi:rx="15" sodipodi:cy="15" sodipodi:cx="15" id="pdepend_4f6073ea4466e" style="fill:url(#jdepend.bad.gradient);stroke:none" ry="15" rx="15" cy="15" cx="15" transform="matrix(0.32943469785575, 0, 0, 0.32943469785575, 45.058479532164, 205.05847953216)" title="WordPress\Post_Revisions"/><ellipse sodipodi:ry="15" sodipodi:rx="15" sodipodi:cy="15" sodipodi:cx="15" id="pdepend_4f6073ea447bc" style="fill:url(#jdepend.bad.gradient);stroke:none" ry="15" rx="15" cy="15" cx="15" transform="matrix(0.32943469785575, 0, 0, 0.32943469785575, 45.058479532164, 205.05847953216)" title="WordPress\Dummy"/><ellipse sodipodi:ry="15" sodipodi:rx="15" sodipodi:cy="15" sodipodi:cx="15" id="pdepend_4f6073ea448fc" style="fill:url(#jdepend.bad.gradient);stroke:none" ry="15" rx="15" cy="15" cx="15" transform="matrix(0.32943469785575, 0, 0, 0.32943469785575, 45.058479532164, 205.05847953216)" title="WordPress\General_Settings_Screen"/><ellipse sodipodi:ry="15" sodipodi:rx="15" sodipodi:cy="15" sodipodi:cx="15" id="pdepend_4f6073ea44a34" style="fill:url(#jdepend.bad.gradient);stroke:none" ry="15" rx="15" cy="15" cx="15" transform="matrix(0.32943469785575, 0, 0, 0.32943469785575, 45.058479532164, 205.05847953216)" title="WordPress\Reading_Settings_Screen"/><ellipse sodipodi:ry="15" sodipodi:rx="15" sodipodi:cy="15" sodipodi:cx="15" id="pdepend_4f6073ea44b89" style="fill:url(#jdepend.bad.gradient);stroke:none" ry="15" rx="15" cy="15" cx="15" transform="matrix(0.32943469785575, 0, 0, 0.32943469785575, 45.058479532164, 205.05847953216)" title="WordPress\Press_This"/><ellipse sodipodi:ry="15" sodipodi:rx="15" sodipodi:cy="15" sodipodi:cx="15" id="pdepend_4f6073ea44cd4" style="fill:url(#jdepend.bad.gradient);stroke:none" ry="15" rx="15" cy="15" cx="15" transform="matrix(0.32943469785575, 0, 0, 0.32943469785575, 45.058479532164, 205.05847953216)" title="WordPress\Installer_WP_Config"/><ellipse sodipodi:ry="15" sodipodi:rx="15" sodipodi:cy="15" sodipodi:cx="15" id="pdepend_4f6073ea44e0e" style="fill:url(#jdepend.bad.gradient);stroke:none" ry="15" rx="15" cy="15" cx="15" transform="matrix(0.32943469785575, 0, 0, 0.32943469785575, 45.058479532164, 205.05847953216)" title="WordPress\Installer"/><ellipse sodipodi:ry="15" sodipodi:rx="15" sodipodi:cy="15" sodipodi:cx="15" id="pdepend_4f6073ea44f6c" style="fill:url(#jdepend.bad.gradient);stroke:none" ry="15" rx="15" cy="15" cx="15" transform="matrix(0.32943469785575, 0, 0, 0.32943469785575, 45.058479532164, 205.05847953216)" title="WordPress\Logging"/><ellipse sodipodi:ry="15" sodipodi:rx="15" sodipodi:cy="15" sodipodi:cx="15" id="pdepend_4f6073ea450cd" style="fill:url(#jdepend.bad.gradient);stroke:none" ry="15" rx="15" cy="15" cx="15" transform="matrix(0.32943469785575, 0, 0, 0.32943469785575, 45.058479532164, 205.05847953216)" title="WordPress\Plugin"/><ellipse sodipodi:ry="15" sodipodi:rx="15" sodipodi:cy="15" sodipodi:cx="15" id="pdepend_4f6073ea4520b" style="fill:url(#jdepend.bad.gradient);stroke:none" ry="15" rx="15" cy="15" cx="15" transform="matrix(0.33333333333333, 0, 0, 0.33333333333333, 45, 205)" title="BuddyPress\ActivityClasses"/><ellipse sodipodi:ry="15" sodipodi:rx="15" sodipodi:cy="15" sodipodi:cx="15" id="pdepend_4f6073ea46155" style="fill:url(#jdepend.good.gradient);stroke:none" ry="15" rx="15" cy="15" cx="15" transform="matrix(0.33333333333333, 0, 0, 0.33333333333333, 45, 15)" title="WordPress\Twenty_Eleven"/><ellipse sodipodi:ry="15" sodipodi:rx="15" sodipodi:cy="15" sodipodi:cx="15" id="pdepend_4f6073ea4641d" style="fill:url(#jdepend.good.gradient);stroke:none" ry="15" rx="15" cy="15" cx="15" transform="matrix(0.33333333333333, 0, 0, 0.33333333333333, 45, 15)" title="BuddyPress\Messages"/><ellipse sodipodi:ry="15" sodipodi:rx="15" sodipodi:cy="15" sodipodi:cx="15" id="pdepend_4f6073ea465a3" style="fill:url(#jdepend.good.gradient);stroke:none" ry="15" rx="15" cy="15" cx="15" transform="matrix(0.33333333333333, 0, 0, 0.33333333333333, 45, 15)" title="WordPress\oEmbed"/><ellipse sodipodi:ry="15" sodipodi:rx="15" sodipodi:cy="15" sodipodi:cx="15" id="pdepend_4f6073ea466ce" style="fill:url(#jdepend.good.gradient);stroke:none" ry="15" rx="15" cy="15" cx="15" transform="matrix(0.33333333333333, 0, 0, 0.33333333333333, 45, 15)" title="BuddyPress\XProfile"/><ellipse sodipodi:ry="15" sodipodi:rx="15" sodipodi:cy="15" sodipodi:cx="15" id="pdepend_4f6073ea467fa" style="fill:url(#jdepend.bad.gradient);stroke:none" ry="15" rx="15" cy="15" cx="15" transform="matrix(0.33333333333333, 0, 0, 0.33333333333333, 45, 205)" title="plugins\mail_fetch"/><ellipse sodipodi:ry="15" sodipodi:rx="15" sodipodi:cy="15" sodipodi:cx="15" id="pdepend_4f6073ea4693b" style="fill:url(#jdepend.good.gradient);stroke:none" ry="15" rx="15" cy="15" cx="15" transform="matrix(0.33333333333333, 0, 0, 0.33333333333333, 45, 15)" title="BuddyPress\Friends"/><ellipse sodipodi:ry="15" sodipodi:rx="15" sodipodi:cy="15" sodipodi:cx="15" id="pdepend_4f6073ea46a67" style="fill:url(#jdepend.good.gradient);stroke:none" ry="15" rx="15" cy="15" cx="15" transform="matrix(0.33333333333333, 0, 0, 0.33333333333333, 45, 15)" title="PemFTP\Socket"/><ellipse sodipodi:ry="15" sodipodi:rx="15" sodipodi:cy="15" sodipodi:cx="15" id="pdepend_4f6073ea46b93" style="fill:url(#jdepend.bad.gradient);stroke:none" ry="15" rx="15" cy="15" cx="15" transform="matrix(0.33333333333333, 0, 0, 0.33333333333333, 45, 205)" title="pomo\streams"/><ellipse sodipodi:ry="15" sodipodi:rx="15" sodipodi:cy="15" sodipodi:cx="15" id="pdepend_4f6073ea46cd3" style="fill:url(#jdepend.bad.gradient);stroke:none" ry="15" rx="15" cy="15" cx="15" transform="matrix(0.33333333333333, 0, 0, 0.33333333333333, 45, 110)" title="BackPress\User"/><ellipse sodipodi:ry="15" sodipodi:rx="15" sodipodi:cy="15" sodipodi:cx="15" id="pdepend_4f6073ea46e06" style="fill:url(#jdepend.bad.gradient);stroke:none" ry="15" rx="15" cy="15" cx="15" transform="matrix(0.33333333333333, 0, 0, 0.33333333333333, 45, 110)" title="PemFTP\Pure"/><ellipse sodipodi:ry="15" sodipodi:rx="15" sodipodi:cy="15" sodipodi:cx="15" id="pdepend_4f6073ea46f32" style="fill:url(#jdepend.good.gradient);stroke:none" ry="15" rx="15" cy="15" cx="15" transform="matrix(0.33333333333333, 0, 0, 0.33333333333333, 45, 15)" title="WordPress\Diff"/><ellipse sodipodi:ry="15" sodipodi:rx="15" sodipodi:cy="15" sodipodi:cx="15" id="pdepend_4f6073ea47078" style="fill:url(#jdepend.bad.gradient);stroke:none" ry="15" rx="15" cy="15" cx="15" transform="matrix(0.33333333333333, 0, 0, 0.33333333333333, 45, 110)" title="WordPress\Database"/><ellipse sodipodi:ry="15" sodipodi:rx="15" sodipodi:cy="15" sodipodi:cx="15" id="pdepend_4f6073ea471b5" style="fill:url(#jdepend.bad.gradient);stroke:none" ry="15" rx="15" cy="15" cx="15" transform="matrix(0.33333333333333, 0, 0, 0.33333333333333, 45, 205)" title="pomo\entry"/><ellipse sodipodi:ry="15" sodipodi:rx="15" sodipodi:cy="15" sodipodi:cx="15" id="pdepend_4f6073ea4734b" style="fill:url(#jdepend.bad.gradient);stroke:none" ry="15" rx="15" cy="15" cx="15" transform="matrix(0.33333333333333, 0, 0, 0.33333333333333, 45, 205)" title="WordPress\Embed"/><ellipse sodipodi:ry="15" sodipodi:rx="15" sodipodi:cy="15" sodipodi:cx="15" id="pdepend_4f6073ea47488" style="fill:url(#jdepend.good.gradient);stroke:none" ry="15" rx="15" cy="15" cx="15" transform="matrix(0.33333333333333, 0, 0, 0.33333333333333, 45, 15)" title="BuddyPress\ActivityCore"/><ellipse sodipodi:ry="15" sodipodi:rx="15" sodipodi:cy="15" sodipodi:cx="15" id="pdepend_4f6073ea475d8" style="fill:url(#jdepend.good.gradient);stroke:none" ry="15" rx="15" cy="15" cx="15" transform="matrix(0.33333333333333, 0, 0, 0.33333333333333, 45, 15)" title="BuddyPress\Forums"/><ellipse sodipodi:ry="15" sodipodi:rx="15" sodipodi:cy="15" sodipodi:cx="15" id="pdepend_4f6073ea479a0" style="fill:url(#jdepend.good.gradient);stroke:none" ry="15" rx="15" cy="15" cx="15" transform="matrix(0.33333333333333, 0, 0, 0.33333333333333, 45, 15)" title="BuddyPress\Members"/><ellipse sodipodi:ry="15" sodipodi:rx="15" sodipodi:cy="15" sodipodi:cx="15" id="pdepend_4f6073ea47b1f" style="fill:url(#jdepend.good.gradient);stroke:none" ry="15" rx="15" cy="15" cx="15" transform="matrix(0.33333333333333, 0, 0, 0.33333333333333, 45, 15)" title="bbPress\Publishing"/><ellipse sodipodi:ry="15" sodipodi:rx="15" sodipodi:cy="15" sodipodi:cx="15" id="pdepend_4f6073ea47c70" style="fill:url(#jdepend.good.gradient);stroke:none" ry="15" rx="15" cy="15" cx="15" transform="matrix(0.33333333333333, 0, 0, 0.33333333333333, 45, 15)" title="bbPress\Taxonomy"/><ellipse sodipodi:ry="15" sodipodi:rx="15" sodipodi:cy="15" sodipodi:cx="15" id="pdepend_4f6073ea47dab" style="fill:url(#jdepend.good.gradient);stroke:none" ry="15" rx="15" cy="15" cx="15" transform="matrix(0.33333333333333, 0, 0, 0.33333333333333, 45, 15)" title="BuddyPress\Blogs"/><ellipse sodipodi:ry="15" sodipodi:rx="15" sodipodi:cy="15" sodipodi:cx="15" id="pdepend_4f6073ea47ee5" style="fill:url(#jdepend.bad.gradient);stroke:none" ry="15" rx="15" cy="15" cx="15" transform="matrix(0.33723196881092, 0, 0, 0.33723196881092, 44.941520467836, 204.94152046784)" title="MCManager.utils"/><ellipse sodipodi:ry="15" sodipodi:rx="15" sodipodi:cy="15" sodipodi:cx="15" id="pdepend_4f6073ea48041" style="fill:url(#jdepend.bad.gradient);stroke:none" ry="15" rx="15" cy="15" cx="15" transform="matrix(0.33723196881092, 0, 0, 0.33723196881092, 44.941520467836, 204.94152046784)" title="WordPress\Administration"/><ellipse sodipodi:ry="15" sodipodi:rx="15" sodipodi:cy="15" sodipodi:cx="15" id="pdepend_4f6073ea48138" style="fill:url(#jdepend.good.gradient);stroke:none" ry="15" rx="15" cy="15" cx="15" transform="matrix(0.33723196881092, 0, 0, 0.33723196881092, 44.941520467836, 14.941520467836)" title="WordPress\Publishing"/><ellipse sodipodi:ry="15" sodipodi:rx="15" sodipodi:cy="15" sodipodi:cx="15" id="pdepend_4f6073ea482a5" style="fill:url(#jdepend.bad.gradient);stroke:none" ry="15" rx="15" cy="15" cx="15" transform="matrix(0.33723196881092, 0, 0, 0.33723196881092, 44.941520467836, 109.94152046784)" title="pomo\translations"/><ellipse sodipodi:ry="15" sodipodi:rx="15" sodipodi:cy="15" sodipodi:cx="15" id="pdepend_4f6073ea487d5" style="fill:url(#jdepend.bad.gradient);stroke:none" ry="15" rx="15" cy="15" cx="15" transform="matrix(0.33723196881092, 0, 0, 0.33723196881092, 44.941520467836, 204.94152046784)" title="WordPress\Widgets"/><ellipse sodipodi:ry="15" sodipodi:rx="15" sodipodi:cy="15" sodipodi:cx="15" id="pdepend_4f6073ea489e0" style="fill:url(#jdepend.good.gradient);stroke:none" ry="15" rx="15" cy="15" cx="15" transform="matrix(0.33723196881092, 0, 0, 0.33723196881092, 44.941520467836, 14.941520467836)" title="pomo\mo"/><ellipse sodipodi:ry="15" sodipodi:rx="15" sodipodi:cy="15" sodipodi:cx="15" id="pdepend_4f6073ea48b4b" style="fill:url(#jdepend.bad.gradient);stroke:none" ry="15" rx="15" cy="15" cx="15" transform="matrix(0.33723196881092, 0, 0, 0.33723196881092, 44.941520467836, 204.94152046784)" title="WordPress\Cache"/><ellipse sodipodi:ry="15" sodipodi:rx="15" sodipodi:cy="15" sodipodi:cx="15" id="pdepend_4f6073ea48c89" style="fill:url(#jdepend.good.gradient);stroke:none" ry="15" rx="15" cy="15" cx="15" transform="matrix(0.33723196881092, 0, 0, 0.33723196881092, 44.941520467836, 14.941520467836)" title="BuddyPress\Groups"/><ellipse sodipodi:ry="15" sodipodi:rx="15" sodipodi:cy="15" sodipodi:cx="15" id="pdepend_4f6073ea48dda" style="fill:url(#jdepend.bad.gradient);stroke:none" ry="15" rx="15" cy="15" cx="15" transform="matrix(0.33723196881092, 0, 0, 0.33723196881092, 44.941520467836, 204.94152046784)" title="phpass"/><ellipse sodipodi:ry="15" sodipodi:rx="15" sodipodi:cy="15" sodipodi:cx="15" id="pdepend_4f6073ea48f2e" style="fill:url(#jdepend.good.gradient);stroke:none" ry="15" rx="15" cy="15" cx="15" transform="matrix(0.3411306042885, 0, 0, 0.3411306042885, 44.883040935673, 14.883040935673)" title="PHPMailer"/><ellipse sodipodi:ry="15" sodipodi:rx="15" sodipodi:cy="15" sodipodi:cx="15" id="pdepend_4f6073ea49088" style="fill:url(#jdepend.good.gradient);stroke:none" ry="15" rx="15" cy="15" cx="15" transform="matrix(0.3411306042885, 0, 0, 0.3411306042885, 44.883040935673, 14.883040935673)" title="bbPress"/><ellipse sodipodi:ry="15" sodipodi:rx="15" sodipodi:cy="15" sodipodi:cx="15" id="pdepend_4f6073ea491f1" style="fill:url(#jdepend.bad.gradient);stroke:none" ry="15" rx="15" cy="15" cx="15" transform="matrix(0.3411306042885, 0, 0, 0.3411306042885, 44.883040935673, 204.88304093567)" title="WordPress\User"/><ellipse sodipodi:ry="15" sodipodi:rx="15" sodipodi:cy="15" sodipodi:cx="15" id="pdepend_4f6073ea4957a" style="fill:url(#jdepend.bad.gradient);stroke:none" ry="15" rx="15" cy="15" cx="15" transform="matrix(0.3411306042885, 0, 0, 0.3411306042885, 44.883040935673, 204.88304093567)" title="AtomLib"/><ellipse sodipodi:ry="15" sodipodi:rx="15" sodipodi:cy="15" sodipodi:cx="15" id="pdepend_4f6073ea4970b" style="fill:url(#jdepend.good.gradient);stroke:none" ry="15" rx="15" cy="15" cx="15" transform="matrix(0.34502923976608, 0, 0, 0.34502923976608, 44.824561403509, 14.824561403509)" title="WordPress\Filesystem"/><ellipse sodipodi:ry="15" sodipodi:rx="15" sodipodi:cy="15" sodipodi:cx="15" id="pdepend_4f6073ea4985d" style="fill:url(#jdepend.bad.gradient);stroke:none" ry="15" rx="15" cy="15" cx="15" transform="matrix(0.34502923976608, 0, 0, 0.34502923976608, 44.824561403509, 78.157894736842)" title="BuddyPress"/><ellipse sodipodi:ry="15" sodipodi:rx="15" sodipodi:cy="15" sodipodi:cx="15" id="pdepend_4f6073ea4999a" style="fill:url(#jdepend.bad.gradient);stroke:none" ry="15" rx="15" cy="15" cx="15" transform="matrix(0.34892787524366, 0, 0, 0.34892787524366, 44.766081871345, 204.76608187135)" title="MCManager.includes"/><ellipse sodipodi:ry="15" sodipodi:rx="15" sodipodi:cy="15" sodipodi:cx="15" id="pdepend_4f6073ea49ae8" style="fill:url(#jdepend.bad.gradient);stroke:none" ry="15" rx="15" cy="15" cx="15" transform="matrix(0.36842105263158, 0, 0, 0.36842105263158, 108.47368421053, 14.473684210526)" title="BackPress"/><ellipse sodipodi:ry="15" sodipodi:rx="15" sodipodi:cy="15" sodipodi:cx="15" id="pdepend_4f6073ea49c79" style="fill:url(#jdepend.bad.gradient);stroke:none" ry="15" rx="15" cy="15" cx="15" transform="matrix(0.37231968810916, 0, 0, 0.37231968810916, 44.415204678363, 109.41520467836)" title="WordPress\Upgrader"/><ellipse sodipodi:ry="15" sodipodi:rx="15" sodipodi:cy="15" sodipodi:cx="15" id="pdepend_4f6073ea49dee" style="fill:url(#jdepend.bad.gradient);stroke:none" ry="15" rx="15" cy="15" cx="15" transform="matrix(0.38011695906433, 0, 0, 0.38011695906433, 44.298245614035, 140.9649122807)" title="Text_Diff"/><ellipse sodipodi:ry="15" sodipodi:rx="15" sodipodi:cy="15" sodipodi:cx="15" id="pdepend_4f6073ea49f60" style="fill:url(#jdepend.good.gradient);stroke:none" ry="15" rx="15" cy="15" cx="15" transform="matrix(0.38401559454191, 0, 0, 0.38401559454191, 44.239766081871, 14.239766081871)" title="WordPress\HTTP"/><ellipse sodipodi:ry="15" sodipodi:rx="15" sodipodi:cy="15" sodipodi:cx="15" id="pdepend_4f6073ea4a0d4" style="fill:url(#jdepend.bad.gradient);stroke:none" ry="15" rx="15" cy="15" cx="15" transform="matrix(0.38791423001949, 0, 0, 0.38791423001949, 44.181286549708, 109.18128654971)" title="WordPress\List_Table"/><ellipse sodipodi:ry="15" sodipodi:rx="15" sodipodi:cy="15" sodipodi:cx="15" id="pdepend_4f6073ea4a462" style="fill:url(#jdepend.bad.gradient);stroke:none" ry="15" rx="15" cy="15" cx="15" transform="matrix(0.39571150097466, 0, 0, 0.39571150097466, 44.06432748538, 161.84210526316)" title="WordPress"/><ellipse sodipodi:ry="15" sodipodi:rx="15" sodipodi:cy="15" sodipodi:cx="15" id="pdepend_4f6073ea4a71b" style="fill:url(#jdepend.bad.gradient);stroke:none" ry="15" rx="15" cy="15" cx="15" transform="matrix(0.40740740740741, 0, 0, 0.40740740740741, 43.888888888889, 203.88888888889)" title="IXR"/><ellipse sodipodi:ry="15" sodipodi:rx="15" sodipodi:cy="15" sodipodi:cx="15" id="pdepend_4f6073ea4aaf0" style="fill:url(#jdepend.bad.gradient);stroke:none" ry="15" rx="15" cy="15" cx="15" transform="matrix(1, 0, 0, 1, 35, 125)" title="+global"/></g>
</svg>
